<svg xmlns:xlink="http://www.w3.org/1999/xlink" xmlns="http://www.w3.org/2000/svg" width="650" height="518" id="menthaGraphStagegraphArea" version="1.1"><g transform="translate(32.5,27.5) scale(0.9)" clip-path="url(#clipRect)"><defs><style type="text/css"><![CDATA[

path.link {
	z-index:10000;
	fill: #ffffff;
	fill-opacity: 0.01;
	stroke: #666;
	stroke-width: 2px;
        pointer-events:stroke;
}
path.link-undefined {
	z-index:10000;
	fill: #ffffff;
	fill-opacity: 0.01;
	stroke: #666;
	stroke-width: 2px;
	stroke-dasharray: 10;
        pointer-events:stroke;
}
/* Unknown */ 
path.link-unknown {
	z-index:10000;
	fill: #ffffff;
	fill-opacity: 0;
	stroke: #777777;
	stroke-width: 2px;
        pointer-events:stroke;
}
path.link-bind-unknown {
	z-index:10000;
	fill: #ffffff;
	fill-opacity: 0;
	stroke: #777777;
	stroke-width: 2px;
	stroke-dasharray:5 5;
        pointer-events:stroke;
}
path.link-undefined-unknown {
	z-index:10000;
	fill: #ffffff;
	fill-opacity: 0.01;
	stroke: #777777;
	stroke-width: 2px;
	stroke-dasharray: 15 15;
        pointer-events:stroke;
}
path.link-transcription-unknown {
	z-index:10000;
	fill: #ffffff;
	fill-opacity: 0.1;
	stroke: #77777766;
	stroke-width: 2px;
	stroke-dasharray:5 5;
        pointer-events:stroke;
}
/* Activations */ 
path.link-activation {
	z-index:10000;
	fill: #ffffff;
	fill-opacity: 0;
	stroke: #0066CC;
	stroke-width: 2px;
	pointer-events:stroke;
}
path.link-bind-activation {
	z-index:10000;
	fill: #ffffff;
	fill-opacity: 0;
	stroke: #0066CC;
	stroke-width: 2px;
	stroke-dasharray:5 5;
	pointer-events:stroke;
}
path.link-undefined-activation {
	z-index:10000;
	fill: #ffffff;
	fill-opacity: 0.01;
	stroke: #0066CC;
	stroke-width: 2px;
	stroke-dasharray: 15 15;
        pointer-events:stroke;
}
path.link-transcription-activation {
	z-index:10000;
	fill: #ffffff;
	fill-opacity: 0;
	stroke: #0066CC;
	stroke-width: 2px;
	stroke-dasharray:5 5;
	stroke-opacity: 0.3;
        pointer-events:stroke;
}
/* Inhibitions */ 
path.link-inhibition {
	z-index:10000;
	fill: #ffffff;
	fill-opacity: 0.01;
	stroke: #FF3333;
	stroke-width: 2px;
        pointer-events:stroke;
}
path.link-bind-inhibition {
	z-index:10000;
	fill: #ffffff;
	fill-opacity: 0.01;
	stroke: #FF3333;
	stroke-width: 2px;
	stroke-dasharray:5 5;
        pointer-events:stroke;
}
path.link-undefined-inhibition {
	z-index:10000;
	fill: #ffffff;
	fill-opacity: 0.01;
	stroke: #FF3333;
	stroke-width: 2px;
	stroke-dasharray: 15 15;
        pointer-events:stroke;
}
path.link-transcription-inhibition {
	z-index:10000;
	fill: #ffffff;
	fill-opacity: 0.01;
	stroke: #FF3333;
	stroke-width: 2px;
	stroke-dasharray:5 5;
	stroke-opacity: 0.3;
        pointer-events:stroke;
}
/* Others */ 
path.link-direct {
	z-index:10000;
	fill: #ffffff;
	fill-opacity: 0.01;
	stroke: #000000;
	stroke-width: 2px;
        pointer-events:stroke;
}
path.link-indirect {
	z-index:10000;
	fill: #ffffff;
	fill-opacity: 0.01;
	stroke: #000000;
	stroke-width: 2px;
	stroke-dasharray:8 8;
        pointer-events:stroke;
}
path.link-binding {
	z-index:10000;
	fill: #ffffff;
	fill-opacity: 0.01;
	stroke: #000000;
	stroke-width: 2px;
	stroke-dasharray:3 3;
        pointer-events:stroke;
}
path.link-none {
	z-index:10000;
	fill: #ffffff;
	fill-opacity: 0.01;
	stroke: #666;
	stroke-width: 2px;
        pointer-events:stroke;
}
path.link-ppi {
	z-index:10000;
	fill: #ffffff;
	fill-opacity: 0.01;
	stroke: #0aa34a;
	stroke-width: 2px;
        pointer-events:stroke;
}
path.link-complex-formation {
	z-index:10000;
	fill: #ffffff;
	fill-opacity: 0.01;
	stroke: #0aa34a;
	stroke-width: 2px;
        pointer-events:stroke;
}
path.link-chemical-activation {
	z-index:10000;
	fill: #ffffff;
	fill-opacity: 0.01;
	stroke: #0066CC;
	stroke-width: 2px;
	/*stroke-dasharray: 0,2 1;*/
        pointer-events:stroke;
}
path.link-chemical-inhibition {
	z-index:10000;
	fill: #ffffff;
	fill-opacity: 0.01;
	stroke: #FF3333;
	stroke-width: 2px;
	/*stroke-dasharray: 0,2 1;*/
        pointer-events:stroke;
}
path.link-smallmolecule-activation {
	z-index:10000;
	fill: #ffffff;
	fill-opacity: 0.01;
	stroke: #0066CC;
	stroke-width: 2px;
	/*stroke-dasharray: 0,2 1;*/
        pointer-events:stroke;
}
path.link-smallmolecule-inhibition {
	z-index:10000;
	fill: #ffffff;
	fill-opacity: 0.01;
	stroke: #FF3333;
	stroke-width: 2px;
	/*stroke-dasharray: 0,2 1;*/
        pointer-events:stroke;
}
/* Nodes */ 
.nonhuman {
	stroke: #000;
	stroke-width: 1px;
	fill: #FF9933;
	z-index:10000;
}

.chemical {
	stroke: #000;
	stroke-width: 1px;
	fill: #e1b68b;
	z-index:10000;
}

.smallmolecule {
	stroke: #000;
	stroke-width: 1px;
	fill: #ffc966;
	z-index:10000;
}

.protein {
	stroke: #000;
	stroke-width: 1px;
	fill: #99cc66;
	z-index:10000;
}
.complex {
	stroke: #000;
	stroke-width: 1px;
	fill: #708ccd;
	z-index:10000;
}
.proteinfamily {
	stroke: #000;
	stroke-width: 1px;
	fill: #ffffff;
	z-index:10000;
}
.phenotype {
	stroke: #000;
	stroke-width: 1px;
	fill: #99FF99;
	z-index:10000;
}
.stimulus {
	stroke: #000;
	stroke-width: 1px;
	fill: #FF9999;
	z-index:10000;
}
text {
	font: 10px sans-serif;
	pointer-events: none;
}
text.plaintext {
	fill: #000;
	
	font-size: 10px;
}
.scroll-pane
{
	overflow: auto;
	color: #111;
	width: 100%;
	height: 85%;
}
.hull1 {
	fill: grey;
	stroke: grey;
	stroke-width: 15px;
	stroke-linejoin: round;
	opacity:0.3;
}
.hull2 {
	fill: red;
	stroke: red;
	stroke-width: 15px;
	stroke-linejoin: round;
	opacity:0.5;
}
.controlbar {
	padding:0px;
}
.controlbar td {
	padding: 0px;
	border: 0px;
}
.mirna {
		stroke: black;
		stroke-width: 1px;
		fill: yellow;
		}
        .antibody{stroke:black;stroke-width:1px;fill:red;}
        
        path.link-test {
		z-index:10000;
		fill: #fec967;
		fill-opacity: 0.01;
		stroke: #fec967;;
		stroke-width: 5px;
		stroke-dasharray: 1;
}
        path.link-test2 {
        z-index:10000;
		fill: #ffffff;
		fill-opacity: 0.01;
		stroke: purple;
		stroke-width: 5px;
		stroke-dasharray: 1;
}
        
        path.link-precursor{
        z-index:10000;
		fill: #fec967;
		fill-opacity: 0.01;
		stroke: #fec967;;
		stroke-width: 2px;}
	path.link-toPathway {
		z-index:10000;
		fill: #ffffff;
		fill-opacity: 0.01;
		stroke: gray;
		stroke-width: 2px;
		pointer-events:stroke;
	}.inhibited{
			 fill: #99cc66;
	stroke: cyan !important;
	stroke-width: 3px;}]]></style></defs><defs><linearGradient id="cytosol" x1="0%" y1="0%" x2="0%" y2="100%"><stop offset="0%" style="stop-color:rgb(255,255,255);stop-opacity:1"></stop><stop offset="18%" style="stop-color:rgb(173,216,230);stop-opacity:1"></stop></linearGradient></defs><g><circle r="1650" stroke="black" stroke-width="2" fill="#FFFF99" cx="325" cy="1710"></circle></g><g><circle r="1650" stroke="black" stroke-width="2" fill="url(#cytosol)" cx="325" cy="1741.6666666666667"></circle></g><g><ellipse rx="660" ry="275" stroke="black" stroke-width="2" fill="#CCCCFF" cx="325" cy="687.5"></ellipse></g><g><rect x="-25000" y="490" width="50000" height="50000" style="fill:white;stroke:black;stroke-width:2;" onmousedown="selectElement(evt)"></rect></g><defs><marker id="activation" style="fill:#0066CC" viewBox="0 -5 10 10" refX="16" refY="-0.5" markerWidth="6.75" markerHeight="6.75" orient="auto"><path d="M0,-5L10,0L0,5 Z"></path></marker></defs><defs><marker id="activationbase" style="fill:#0066CC" viewBox="0 -5 10 10" refX="0" refY="-0.5" markerWidth="6.75" markerHeight="6.75" orient="auto"><path d="M0,-5L10,0L0,5 Z"></path></marker></defs><defs><marker id="inhibition" style="fill:#FF3333" viewBox="0 0 30 30" refX="15" refY="10" markerWidth="13.5" markerHeight="13.5" orient="auto"><path d="M0 0 L0 20 L5 20 L5 0 Z"></path></marker></defs><defs><marker id="inhibitionbase" style="fill:#FF3333" viewBox="0 0 30 30" refX="0" refY="10" markerWidth="13.5" markerHeight="13.5" orient="auto"><path d="M0 0 L0 20 L5 20 L5 0 Z"></path></marker></defs><defs><marker id="unknown" style="fill:#777777" viewBox="-10 -10 30 30" refX="16" refY="0" markerWidth="13.5" markerHeight="13.5" orient="auto"><circle r="6"></circle></marker></defs><defs><marker id="formation" style="fill:#0aa34a" viewBox="0 0 20 20" refX="16" refY="4" markerWidth="12" markerHeight="12" orient="auto"><rect width="8" height="8"></rect></marker></defs><defs><marker id="undefined"></marker></defs><defs><marker id="formation"></marker></defs><defs><marker id="unknown"></marker></defs><defs><marker id="complex-formation"></marker></defs><defs><marker id="precursor" style="fill:#fec967" viewBox="0 -5 10 10" refX="16" refY="-0.5" markerWidth="6.75" markerHeight="6.75" orient="auto"><path d="M0,-5L10,0L0,5 Z"></path></marker></defs><clipPath id="clipRect"><rect x="-50" y="-50" width="750" height="650"></rect></clipPath><g><path class="link-transcription-activation" id="Q02078Q9UKX2edge" marker-end="url('#activation')" d="M59.09090909090909,464.90084920268896A282.11380558468477,282.11380558468477 0 0,1 273.62904851478487,329.1075203284949"></path><path class="link-transcription-activation" id="SIGNOR-C154P10145edge" marker-end="url('#activation')" d="M118.18181818181819,456.34639396288685A291.44384764002905,291.44384764002905 0 0,1 91.42857142857143,20"></path><path class="link-transcription-activation" id="Q14814Q9UKX2edge" marker-end="url('#activation')" d="M177.27272727272728,449.95977479815883A515.2109390412932,515.2109390412932 0 0,1 273.62904851478487,329.1075203284949"></path><path class="link-transcription-activation" id="Q15389Q9UKX2edge" marker-end="url('#activation')" d="M182.85714285714286,20A3221.5989505267526,3221.5989505267526 0 0,1 273.62904851478487,329.1075203284949"></path><path class="link-bind-activation" id="P10145P25024edge" marker-end="url('#activation')" d="M91.42857142857143,20A933.0180028235977,933.0180028235977 0 0,1 160,83.27072877407704"></path><path class="link-transcription-activation" id="P52952P10916edge" marker-end="url('#activation')" d="M236.36363636363637,445.71578212755594A282.3146643950741,282.3146643950741 0 0,1 108.59991320605762,385.700588400972"></path><path class="link-transcription-activation" id="Q02763Q9UKX2edge" marker-end="url('#activation')" d="M320,75.00757577496734A516.5928646961743,516.5928646961743 0 0,1 273.62904851478487,329.1075203284949"></path><path class="link-undefined-activation" id="P10145SIGNOR-PH12edge" marker-end="url('#activation')" d="M91.42857142857143,20A1058.4626039214738,1058.4626039214738 0 0,1 213.33333333333334,535"></path><path class="link-transcription-activation" id="Q14814P12883edge" marker-end="url('#activation')" d="M177.27272727272728,449.95977479815883A380.9612006969588,380.9612006969588 0 0,1 393.543405188148,293.9424753475084"></path><path class="link-transcription-activation" id="SIGNOR-C13P10145edge" marker-end="url('#activation')" d="M295.4545454545455,443.5978799603681A671.6743653206589,671.6743653206589 0 0,1 91.42857142857143,20"></path><path class="link-transcription-activation" id="P02741P10145edge" marker-end="url('#activation')" d="M30.71570423619554,137.7108146164926A441.4859771322472,441.4859771322472 0 0,1 91.42857142857143,20"></path><path class="link-bind-activation" id="O15273Q8WZ42edge" marker-end="url('#activation')" d="M294.605424829786,109.2487735293122A305.1089825889416,305.1089825889416 0 0,1 274.2857142857143,20"></path><path class="link-undefined-activation" id="P10145SIGNOR-PH128edge" marker-end="url('#activation')" d="M91.42857142857143,20A240.2336234273513,240.2336234273513 0 0,1 50.197367020707304,183.03055774100693"></path><path class="link-transcription-activation" id="SIGNOR-C93P48788edge" marker-end="url('#activation')" d="M354.5454545454546,443.5978799603681A414.7081538705909,414.7081538705909 0 0,1 460.1645738322019,377.847911132241"></path><path class="link-transcription-activation" id="O95644P12883edge" marker-end="url('#activation')" d="M413.63636363636374,445.71578212755594A306.1951249131975,306.1951249131975 0 0,1 393.543405188148,293.9424753475084" style="cursor: default; stroke-width: 2px;"></path><path class="link-activation" id="Q5VT25P10916edge" marker-end="url('#activation')" d="M44.3975381283963,388.64064587411764A642.696577208725,642.696577208725 0 0,1 108.59991320605762,385.700588400972"></path><path class="link-transcription-activation" id="P14859Q9UKX2edge" marker-end="url('#activation')" d="M472.72727272727286,449.95977479815883A332.72336457884415,332.72336457884415 0 0,1 273.62904851478487,329.1075203284949"></path><path class="link-transcription-inhibition" id="P11308P10145edge" marker-end="url('#inhibition')" d="M129.08034435584224,156.31295202751159A282.8347708116627,282.8347708116627 0 0,1 91.42857142857143,20"></path><path class="link-activation" id="P27361P05976edge" marker-end="url('#activation')" d="M605.5814733167389,270.5781975969764A409.1973578868061,409.1973578868061 0 0,1 596.8562188293446,230.5995193903919"></path><path class="link-bind-activation" id="P10145P25025edge" marker-end="url('#activation')" d="M91.42857142857143,20A437.2594238150151,437.2594238150151 0 0,1 480,82.29643574989473"></path><path class="link-undefined-unknown" id="Q8WZ42O15273edge" marker-end="url('#unknown')" d="M274.2857142857143,20A305.1089825889416,305.1089825889416 0 0,1 294.605424829786,109.2487735293122"></path><path class="link-transcription-activation" id="Q06413Q9UKX2edge" marker-end="url('#activation')" d="M531.818181818182,456.34639396288685A319.8212454429454,319.8212454429454 0 0,1 273.62904851478487,329.1075203284949"></path><path class="link-transcription-activation" id="Q99607P10145edge" marker-end="url('#activation')" d="M590.9090909090911,464.90084920268896A514.5329098920827,514.5329098920827 0 0,1 91.42857142857143,20"></path><path class="link-transcription-activation" id="P05305P12883edge" marker-end="url('#activation')" d="M365.7142857142857,20A550.7047836734696,550.7047836734696 0 0,1 393.543405188148,293.9424753475084" style="cursor: default; stroke-width: 2px;"></path><path class="link-activation" id="Q8WZ42Q5VST9edge" marker-end="url('#activation')" d="M274.2857142857143,20A274.20683895532954,274.20683895532954 0 0,1 376.01866611971525,111.91166489412183"></path><path class="link-transcription-activation" id="SIGNOR-C93P12883edge" marker-end="url('#activation')" d="M354.5454545454546,443.5978799603681A515.5103219590457,515.5103219590457 0 0,1 393.543405188148,293.9424753475084" style="cursor: default; stroke-width: 2px;"></path><path class="link-undefined-activation" id="P10145SIGNOR-PH46edge" marker-end="url('#activation')" d="M91.42857142857143,20A558.6358684063684,558.6358684063684 0 0,1 426.6666666666667,535"></path><path class="link-transcription-activation" id="P15018P12883edge" marker-end="url('#activation')" d="M457.14285714285717,20A562.4566475328018,562.4566475328018 0 0,1 393.543405188148,293.9424753475084"></path><path class="link-undefined-activation" id="P59594P10145edge" marker-end="url('#activation')" d="M548.5714285714286,20A653.0612244897959,653.0612244897959 0 0,1 91.42857142857143,20"></path></g><g><path class="complex" d="M -3.5380432619161e-7,-10.422110257019 A 6.470588673012,6.4705126773471 0 0 0 -6.4705890268163,-3.9515454402782 6.470588673012,6.4705126773471 0 0 0 -6.0156256696514,-1.5674331419299 6.470588673012,6.4705126773471 0 0 0 -10.784314764824,4.6758743153767 6.470588673012,6.4705126773471 0 0 0 -4.3137261358123,11.146439132118 6.470588673012,6.4705126773471 0 0 0 -0.00842569486298,9.4951383190327 6.470588673012,6.4705126773471 0 0 0 4.3137252082032,11.146439132118 6.470588673012,6.4705126773471 0 0 0 10.784314981215,4.6758743153767 6.470588673012,6.4705126773471 0 0 0 6.0071996209837,-1.5586332441786 6.470588673012,6.4705126773471 0 0 0 6.4705880992072,-3.9515454402788 6.470588673012,6.4705126773471 0 0 0 -3.5380434841829e-7,-10.42211025702 Z" id="SIGNOR-C154" transform="translate(118.18181818181819,456.34639396288685) scale(1.3,1.3)"></path><path class="complex" d="M -3.5380432619161e-7,-10.422110257019 A 6.470588673012,6.4705126773471 0 0 0 -6.4705890268163,-3.9515454402782 6.470588673012,6.4705126773471 0 0 0 -6.0156256696514,-1.5674331419299 6.470588673012,6.4705126773471 0 0 0 -10.784314764824,4.6758743153767 6.470588673012,6.4705126773471 0 0 0 -4.3137261358123,11.146439132118 6.470588673012,6.4705126773471 0 0 0 -0.00842569486298,9.4951383190327 6.470588673012,6.4705126773471 0 0 0 4.3137252082032,11.146439132118 6.470588673012,6.4705126773471 0 0 0 10.784314981215,4.6758743153767 6.470588673012,6.4705126773471 0 0 0 6.0071996209837,-1.5586332441786 6.470588673012,6.4705126773471 0 0 0 6.4705880992072,-3.9515454402788 6.470588673012,6.4705126773471 0 0 0 -3.5380434841829e-7,-10.42211025702 Z" id="SIGNOR-C13" transform="translate(295.4545454545455,443.5978799603681) scale(1.3,1.3)"></path><path class="complex" d="M -3.5380432619161e-7,-10.422110257019 A 6.470588673012,6.4705126773471 0 0 0 -6.4705890268163,-3.9515454402782 6.470588673012,6.4705126773471 0 0 0 -6.0156256696514,-1.5674331419299 6.470588673012,6.4705126773471 0 0 0 -10.784314764824,4.6758743153767 6.470588673012,6.4705126773471 0 0 0 -4.3137261358123,11.146439132118 6.470588673012,6.4705126773471 0 0 0 -0.00842569486298,9.4951383190327 6.470588673012,6.4705126773471 0 0 0 4.3137252082032,11.146439132118 6.470588673012,6.4705126773471 0 0 0 10.784314981215,4.6758743153767 6.470588673012,6.4705126773471 0 0 0 6.0071996209837,-1.5586332441786 6.470588673012,6.4705126773471 0 0 0 6.4705880992072,-3.9515454402788 6.470588673012,6.4705126773471 0 0 0 -3.5380434841829e-7,-10.42211025702 Z" id="SIGNOR-C93" transform="translate(354.5454545454546,443.5978799603681) scale(1.3,1.3)"></path></g><g><circle r="9" id="Q02078" class="protein" transform="translate(59.09090909090909,464.90084920268896)"></circle><circle r="9" id="Q9UKX2" class="protein" style="fill:#538521;" transform="translate(273.62904851478487,329.1075203284949)"></circle><circle r="9" id="P10145" class="protein" style="fill:#538521;" transform="translate(91.42857142857143,20)"></circle><circle r="9" id="Q14814" class="protein" transform="translate(177.27272727272728,449.95977479815883)"></circle><circle r="9" id="Q15389" class="protein" transform="translate(182.85714285714286,20)"></circle><circle r="9" id="P25024" class="protein" transform="translate(160,83.27072877407704)"></circle><circle r="9" id="P52952" class="protein" transform="translate(236.36363636363637,445.71578212755594)"></circle><circle r="9" id="P10916" class="protein" style="fill:#538521;" transform="translate(108.59991320605762,385.700588400972)"></circle><circle r="9" id="P12883" class="protein" style="fill:#538521;" transform="translate(393.543405188148,293.9424753475084)"></circle><circle r="9" id="P02741" class="protein" transform="translate(30.71570423619554,137.7108146164926)"></circle><circle r="9" id="O15273" class="protein" transform="translate(294.605424829786,109.2487735293122)"></circle><circle r="9" id="Q8WZ42" class="protein" style="fill:#538521;" transform="translate(274.2857142857143,20)"></circle><circle r="9" id="P48788" class="protein" style="fill:#538521;" transform="translate(460.1645738322019,377.847911132241)"></circle><circle r="9" id="O95644" class="protein" transform="translate(413.63636363636374,445.71578212755594)"></circle><circle r="9" id="Q5VT25" class="protein" transform="translate(44.3975381283963,388.64064587411764)"></circle><circle r="9" id="P14859" class="protein" transform="translate(472.72727272727286,449.95977479815883)"></circle><circle r="9" id="P11308" class="protein" transform="translate(129.08034435584224,156.31295202751159)"></circle><circle r="9" id="P27361" class="protein" transform="translate(605.5814733167389,270.5781975969764)"></circle><circle r="9" id="P05976" class="protein" style="fill:#538521;" transform="translate(596.8562188293446,230.5995193903919)"></circle><circle r="9" id="P25025" class="protein" transform="translate(480,82.29643574989473)"></circle><circle r="9" id="Q06413" class="protein" transform="translate(531.818181818182,456.34639396288685)"></circle><circle r="9" id="Q99607" class="protein" transform="translate(590.9090909090911,464.90084920268896)"></circle><circle r="9" id="P05305" class="protein" transform="translate(365.7142857142857,20)"></circle><circle r="9" id="Q5VST9" class="protein" transform="translate(376.01866611971525,111.91166489412183)"></circle><circle r="9" id="P15018" class="protein" transform="translate(457.14285714285717,20)"></circle><circle r="9" id="P59594" class="protein" transform="translate(548.5714285714286,20)"></circle></g><g></g><g></g><g><path class="phenotype" d="M-30,-15L50,-15L50,5L-30,5 Z" id="SIGNOR-PH12" transform="translate(213.33333333333334,535)"></path><path class="phenotype" d="M-30,-15L50,-15L50,5L-30,5 Z" id="SIGNOR-PH128" transform="translate(50.197367020707304,183.03055774100693)"></path><path class="phenotype" d="M-30,-15L50,-15L50,5L-30,5 Z" id="SIGNOR-PH46" transform="translate(426.6666666666667,535)"></path></g><g></g><g><path class="inhibited" d="M-9,0a9,9 0 1,0 18,0a9,9 0 1,0 -18,0" id="Q02763" transform="translate(320,75.00757577496734)"></path><path class="phenotype" d="M-30,-15L50,-15L50,5L-30,5 Z" id="SIGNOR-PH12" transform="translate(213.33333333333334,535)"></path><path class="phenotype" d="M-30,-15L50,-15L50,5L-30,5 Z" id="SIGNOR-PH128" transform="translate(50.197367020707304,183.03055774100693)"></path><path class="phenotype" d="M-30,-15L50,-15L50,5L-30,5 Z" id="SIGNOR-PH46" transform="translate(426.6666666666667,535)"></path></g><g><text><textPath xlink:href="#Q02078Q9UKX2edge" startOffset="50%" id="Q02078-Q9UKX2-score" style="display: inline;">0.331</textPath></text></g><g><text><textPath xlink:href="#SIGNOR-C154P10145edge" startOffset="50%" id="SIGNOR-C154-P10145-score" style="display: inline;">0.563</textPath></text></g><g><text><textPath xlink:href="#Q14814Q9UKX2edge" startOffset="50%" id="Q14814-Q9UKX2-score" style="display: inline;">0.333</textPath></text></g><g><text><textPath xlink:href="#Q15389Q9UKX2edge" startOffset="50%" id="Q15389-Q9UKX2-score" style="display: inline;">0.2</textPath></text></g><g><text><textPath xlink:href="#P10145P25024edge" startOffset="50%" id="P10145-P25024-score" style="display: inline;">0.772</textPath></text></g><g><text><textPath xlink:href="#P52952P10916edge" startOffset="50%" id="P52952-P10916-score" style="display: inline;">0.605</textPath></text></g><g><text><textPath xlink:href="#Q02763Q9UKX2edge" startOffset="50%" id="Q02763-Q9UKX2-score" style="display: inline;">0.2</textPath></text></g><g><text><textPath xlink:href="#P10145SIGNOR-PH12edge" startOffset="50%" id="P10145-SIGNOR-PH12-score" style="display: inline;">0.7</textPath></text></g><g><text><textPath xlink:href="#Q14814P12883edge" startOffset="50%" id="Q14814-P12883-score" style="display: inline;">0.342</textPath></text></g><g><text><textPath xlink:href="#SIGNOR-C13P10145edge" startOffset="50%" id="SIGNOR-C13-P10145-score" style="display: inline;">0.634</textPath></text></g><g><text><textPath xlink:href="#P02741P10145edge" startOffset="50%" id="P02741-P10145-score" style="display: inline;">0.492</textPath></text></g><g><text><textPath xlink:href="#O15273Q8WZ42edge" startOffset="50%" id="O15273-Q8WZ42-score" style="display: inline;">0.905</textPath></text></g><g><text><textPath xlink:href="#P10145SIGNOR-PH128edge" startOffset="50%" id="P10145-SIGNOR-PH128-score" style="display: inline;">0.7</textPath></text></g><g><text><textPath xlink:href="#SIGNOR-C93P48788edge" startOffset="50%" id="SIGNOR-C93-P48788-score" style="display: inline;">0.352</textPath></text></g><g><text><textPath xlink:href="#O95644P12883edge" startOffset="50%" id="O95644-P12883-score" style="display: inline;">0.278</textPath></text></g><g><text><textPath xlink:href="#Q5VT25P10916edge" startOffset="50%" id="Q5VT25-P10916-score" style="display: inline;">0.635</textPath></text></g><g><text><textPath xlink:href="#P14859Q9UKX2edge" startOffset="50%" id="P14859-Q9UKX2-score" style="display: inline;">0.2</textPath></text></g><g><text><textPath xlink:href="#P11308P10145edge" startOffset="50%" id="P11308-P10145-score" style="display: inline;">0.2</textPath></text></g><g><text><textPath xlink:href="#P27361P05976edge" startOffset="50%" id="P27361-P05976-score" style="display: inline;">0.291</textPath></text></g><g><text><textPath xlink:href="#P10145P25025edge" startOffset="50%" id="P10145-P25025-score" style="display: inline;">0.856</textPath></text></g><g><text><textPath xlink:href="#Q8WZ42O15273edge" startOffset="50%" id="Q8WZ42-O15273-score" style="display: inline;">0.905</textPath></text></g><g><text><textPath xlink:href="#Q06413Q9UKX2edge" startOffset="50%" id="Q06413-Q9UKX2-score" style="display: inline;">0.443</textPath></text></g><g><text><textPath xlink:href="#Q99607P10145edge" startOffset="50%" id="Q99607-P10145-score" style="display: inline;">0.243</textPath></text></g><g><text><textPath xlink:href="#P05305P12883edge" startOffset="50%" id="P05305-P12883-score" style="display: inline;">0.284</textPath></text></g><g><text><textPath xlink:href="#Q8WZ42Q5VST9edge" startOffset="50%" id="Q8WZ42-Q5VST9-score" style="display: inline;">0.596</textPath></text></g><g><text><textPath xlink:href="#SIGNOR-C93P12883edge" startOffset="50%" id="SIGNOR-C93-P12883-score" style="display: inline;">0.397</textPath></text></g><g><text><textPath xlink:href="#P10145SIGNOR-PH46edge" startOffset="50%" id="P10145-SIGNOR-PH46-score" style="display: inline;">0.7</textPath></text></g><g><text><textPath xlink:href="#P15018P12883edge" startOffset="50%" id="P15018-P12883-score" style="display: inline;">0.2</textPath></text></g><g><text><textPath xlink:href="#P59594P10145edge" startOffset="50%" id="P59594-P10145-score" style="display: inline;">0.2</textPath></text></g><g><text x="-15" y="2em" class="plaintext" category="protein" id="nodelabelQ02078" transform="translate(59.09090909090909,464.90084920268896)">MEF2A</text><text x="-15" y="2em" class="plaintext" category="protein" id="nodelabelQ9UKX2" transform="translate(273.62904851478487,329.1075203284949)">MYH2</text><text x="-15" y="2em" class="plaintext" category="complex" id="nodelabelSIGNOR-C154" transform="translate(118.18181818181819,456.34639396288685)">AP1</text><text x="-15" y="2em" class="plaintext" category="protein" id="nodelabelP10145" transform="translate(91.42857142857143,20)">CXCL8</text><text x="-15" y="2em" class="plaintext" category="protein" id="nodelabelQ14814" transform="translate(177.27272727272728,449.95977479815883)">MEF2D</text><text x="-15" y="2em" class="plaintext" category="protein" id="nodelabelQ15389" transform="translate(182.85714285714286,20)">ANGPT1</text><text x="-15" y="2em" class="plaintext" category="protein" id="nodelabelP25024" transform="translate(160,83.27072877407704)">CXCR1</text><text x="-15" y="2em" class="plaintext" category="protein" id="nodelabelP52952" transform="translate(236.36363636363637,445.71578212755594)">NKX2-5</text><text x="-15" y="2em" class="plaintext" category="protein" id="nodelabelP10916" transform="translate(108.59991320605762,385.700588400972)">MYL2</text><text x="-15" y="2em" class="plaintext" category="inhibited" id="nodelabelQ02763" transform="translate(320,75.00757577496734)" style="font-size: 12px; stroke-width: 2px;">TEK</text><text x="-24" y="" class="plaintext" category="phenotype" id="nodelabelSIGNOR-PH12" transform="translate(213.33333333333334,535)">Inflammation</text><text x="-15" y="2em" class="plaintext" category="protein" id="nodelabelP12883" transform="translate(393.543405188148,293.9424753475084)" style="font-size: 11px; stroke-width: 2px;">MYH7</text><text x="-15" y="2em" class="plaintext" category="complex" id="nodelabelSIGNOR-C13" transform="translate(295.4545454545455,443.5978799603681)">NfKb-p65/p50</text><text x="-15" y="2em" class="plaintext" category="protein" id="nodelabelP02741" transform="translate(30.71570423619554,137.7108146164926)">CRP</text><text x="-15" y="2em" class="plaintext" category="protein" id="nodelabelO15273" transform="translate(294.605424829786,109.2487735293122)" style="font-size: 11px; stroke-width: 2px;">TCAP</text><text x="-15" y="2em" class="plaintext" category="protein" id="nodelabelQ8WZ42" transform="translate(274.2857142857143,20)" style="font-size: 11px; stroke-width: 2px;">TTN</text><text x="-8" y="" class="plaintext" category="phenotype" id="nodelabelSIGNOR-PH128" transform="translate(50.197367020707304,183.03055774100693)" style="font-size: 12px; stroke-width: 2px;">ARDS</text><text x="-15" y="2em" class="plaintext" category="complex" id="nodelabelSIGNOR-C93" transform="translate(354.5454545454546,443.5978799603681)">MYOD1/SWI/SNF complex</text><text x="-15" y="2em" class="plaintext" category="protein" id="nodelabelP48788" transform="translate(460.1645738322019,377.847911132241)">TNNI2</text><text x="-15" y="2em" class="plaintext" category="protein" id="nodelabelO95644" transform="translate(413.63636363636374,445.71578212755594)">NFATC1</text><text x="-15" y="2em" class="plaintext" category="protein" id="nodelabelQ5VT25" transform="translate(44.3975381283963,388.64064587411764)">CDC42BPA</text><text x="-15" y="2em" class="plaintext" category="protein" id="nodelabelP14859" transform="translate(472.72727272727286,449.95977479815883)">POU2F1</text><text x="-15" y="2em" class="plaintext" category="protein" id="nodelabelP11308" transform="translate(129.08034435584224,156.31295202751159)" style="font-size: 11px; stroke-width: 2px;">ERG</text><text x="-15" y="2em" class="plaintext" category="protein" id="nodelabelP27361" transform="translate(605.5814733167389,270.5781975969764)">MAPK3</text><text x="-15" y="2em" class="plaintext" category="protein" id="nodelabelP05976" transform="translate(596.8562188293446,230.5995193903919)">MYL1</text><text x="-15" y="2em" class="plaintext" category="protein" id="nodelabelP25025" transform="translate(480,82.29643574989473)">CXCR2</text><text x="-15" y="2em" class="plaintext" category="protein" id="nodelabelQ06413" transform="translate(531.818181818182,456.34639396288685)">MEF2C</text><text x="-15" y="2em" class="plaintext" category="protein" id="nodelabelQ99607" transform="translate(590.9090909090911,464.90084920268896)">ELF4</text><text x="-15" y="2em" class="plaintext" category="protein" id="nodelabelP05305" transform="translate(365.7142857142857,20)" style="font-size: 11px; stroke-width: 2px;">EDN1</text><text x="-15" y="2em" class="plaintext" category="protein" id="nodelabelQ5VST9" transform="translate(376.01866611971525,111.91166489412183)">OBSCN</text><text x="-24" y="" class="plaintext" category="phenotype" id="nodelabelSIGNOR-PH46" transform="translate(426.6666666666667,535)">Angiogenesis</text><text x="-15" y="2em" class="plaintext" category="protein" id="nodelabelP15018" transform="translate(457.14285714285717,20)">LIF</text><text x="-15" y="2em" class="plaintext" category="protein" id="nodelabelP59594" transform="translate(548.5714285714286,20)">S</text></g></g><g class="legend" style="display:none" transform="matrix(1 0 0 1 0 0)" onmousedown="selectElement(evt)"><rect x="5" y="405" rx="5" ry="5" width="255" height="110" style="fill:white;stroke:black;stroke-width:1;fill-opacity:1;" category="legend" transform="matrix(1 0 0 1 0 0)" onmousedown="selectElement(evt)"></rect><circle cx="15" cy="415" r="4.5" class="protein" category="legend"></circle><text x="27" y="418" style="font-size:0.6em" category="legend">Protein</text><circle cx="15" cy="430" r="4.5" class="proteinfamily" category="legend"></circle><text x="27" y="433" style="font-size:0.6em" category="legend">Protein family</text><g transform="translate(15,445)"><path d="M -3.5380432619161e-7,-10.422110257019 A 6.470588673012,6.4705126773471 0 0 0 -6.4705890268163,-3.9515454402782 6.470588673012,6.4705126773471 0 0 0 -6.0156256696514,-1.5674331419299 6.470588673012,6.4705126773471 0 0 0 -10.784314764824,4.6758743153767 6.470588673012,6.4705126773471 0 0 0 -4.3137261358123,11.146439132118 6.470588673012,6.4705126773471 0 0 0 -0.00842569486298,9.4951383190327 6.470588673012,6.4705126773471 0 0 0 4.3137252082032,11.146439132118 6.470588673012,6.4705126773471 0 0 0 10.784314981215,4.6758743153767 6.470588673012,6.4705126773471 0 0 0 6.0071996209837,-1.5586332441786 6.470588673012,6.4705126773471 0 0 0 6.4705880992072,-3.9515454402788 6.470588673012,6.4705126773471 0 0 0 -3.5380434841829e-7,-10.42211025702 Z" transform="scale(0.6,0.6)" class="complex" category="legend"></path></g><text x="27" y="448" style="font-size:0.6em" category="legend">Complex</text><rect x="11" y="456" width="9" height="9" class="smallmolecule" category="legend"></rect><text x="27" y="463" style="font-size:0.6em" category="legend">Chemical/Molecule</text><rect x="9" y="471" width="14" height="9" class="phenotype" category="legend"></rect><text x="27" y="478" style="font-size:0.6em" category="legend">Phenotype/Stimulus</text><rect x="9" y="486" width="14" height="8" stroke="black" stroke-width="1" fill="#8F8FFF" category="legend"></rect><rect x="9" y="487" width="14" height="8" stroke="#8F8FFF" stroke-width="1.5" fill="#8F8FFF" category="legend"></rect><text x="27" y="493" style="font-size:0.6em" category="legend">Nucleus</text><rect x="9" y="501" width="14" height="8" stroke="black" stroke-width="1" fill="#FFFF99" category="legend"></rect><rect x="9" y="502" width="14" height="6" stroke="#FFFF99" stroke-width="1.5" fill="#FFFF99" category="legend"></rect><text x="27" y="508" style="font-size:0.6em" category="legend">Membrane</text><path d="M130 415 L155 415" class="link-activation" category="legend"></path><text x="160" y="418" style="font-size:0.6em" category="legend">Up-regulates</text><path d="M130 430 L155 430" class="link-inhibition" category="legend"></path><text x="160" y="433" style="font-size:0.6em" category="legend">Down-regulates</text><path d="M130 445 L155 445" class="link-complex-formation" category="legend"></path><text x="160" y="448" style="font-size:0.6em" category="legend">Physical interaction</text><path d="M130 460 L155 460" class="link-unknown" category="legend"></path><text x="160" y="463" style="font-size:0.6em" category="legend">Unknown</text><path d="M130 475 L155 475" class="link-direct" category="legend"></path><text x="160" y="478" style="font-size:0.6em" category="legend">Direct</text><path d="M130 490 L155 490" class="link-indirect" category="legend"></path><text x="160" y="493" style="font-size:0.6em" category="legend">Indirect</text><path d="M130 505 L155 505" class="link-binding" category="legend"></path><text x="160" y="508" style="font-size:0.6em" category="legend">Binding</text></g></svg>